<svg xmlns="http://www.w3.org/2000/svg" xmlns:xlink="http://www.w3.org/1999/xlink" preserveAspectRatio="xMidYMid meet" version="1.0" viewBox="-0.0 0.0 499.1 499.1" zoomAndPan="magnify" style="fill: rgb(0, 0, 0);"><defs><clipPath id="__id323_slrzjbdfhh"><path d="M 52 0 L 499.039062 0 L 499.039062 499.148438 L 52 499.148438 Z M 52 0"></path></clipPath></defs><g><g id="__id324_slrzjbdfhh"><path d="M 354.640625 306.28125 C 354.414062 306.28125 354.1875 306.230469 353.972656 306.125 L 346.96875 302.621094 C 345.902344 302.082031 344.742188 301.496094 343.902344 300.421875 C 342.320312 298.390625 342.390625 295.535156 344.117188 291.933594 C 344.660156 290.796875 345.25 289.671875 345.824219 288.582031 C 347.050781 286.242188 348.210938 284.027344 348.980469 281.652344 C 349.359375 280.492188 349.609375 279.320312 349.722656 278.171875 C 349.804688 277.347656 350.558594 276.753906 351.363281 276.824219 C 352.1875 276.90625 352.789062 277.644531 352.710938 278.46875 C 352.574219 279.832031 352.28125 281.21875 351.835938 282.582031 C 350.984375 285.199219 349.710938 287.628906 348.480469 289.976562 C 347.921875 291.039062 347.34375 292.140625 346.824219 293.230469 C 346.003906 294.941406 345.238281 297.257812 346.269531 298.574219 C 346.695312 299.121094 347.464844 299.511719 348.28125 299.925781 L 355.3125 303.441406 C 356.054688 303.8125 356.355469 304.710938 355.984375 305.453125 C 355.722656 305.976562 355.191406 306.28125 354.640625 306.28125" style="fill: rgb(255, 255, 255);"></path></g><g id="__id325_slrzjbdfhh"><path d="M 324.304688 267.339844 C 324.144531 267.339844 323.976562 267.3125 323.816406 267.257812 C 323.03125 266.984375 322.617188 266.132812 322.886719 265.351562 C 323.742188 262.871094 324.972656 260.320312 326.539062 257.769531 C 329.617188 252.753906 333.238281 248.035156 336.742188 243.472656 C 340.421875 238.683594 344.226562 233.726562 347.335938 228.488281 C 351.445312 221.589844 357.609375 208.128906 352.730469 195.523438 C 351.667969 192.777344 350.160156 190.269531 348.566406 187.621094 C 347.566406 185.960938 346.53125 184.242188 345.621094 182.464844 C 338.617188 168.867188 339.265625 153.003906 340.421875 139.199219 C 340.492188 138.375 341.234375 137.761719 342.042969 137.832031 C 342.867188 137.898438 343.480469 138.625 343.410156 139.449219 C 342.289062 152.835938 341.648438 168.199219 348.292969 181.097656 C 349.15625 182.78125 350.160156 184.457031 351.136719 186.074219 C 352.726562 188.71875 354.371094 191.453125 355.527344 194.441406 C 360.863281 208.230469 354.300781 222.652344 349.914062 230.023438 C 346.714844 235.414062 342.855469 240.4375 339.121094 245.300781 C 335.664062 249.800781 332.09375 254.453125 329.097656 259.335938 C 327.640625 261.707031 326.507812 264.058594 325.722656 266.328125 C 325.507812 266.949219 324.925781 267.339844 324.304688 267.339844" style="fill: rgb(255, 255, 255);"></path></g><g id="__id326_slrzjbdfhh"><path d="M 351.21875 279.820312 C 351.121094 279.820312 351.027344 279.8125 350.929688 279.792969 C 340.761719 277.808594 331.230469 273.386719 323.359375 267.003906 C 322.71875 266.480469 322.617188 265.535156 323.140625 264.894531 C 323.660156 264.25 324.605469 264.152344 325.25 264.675781 C 332.738281 270.75 341.816406 274.957031 351.503906 276.847656 C 352.316406 277.007812 352.847656 277.792969 352.6875 278.605469 C 352.550781 279.320312 351.921875 279.820312 351.21875 279.820312" style="fill: rgb(255, 255, 255);"></path></g><g id="__id327_slrzjbdfhh"><path d="M 354.730469 339.453125 C 354.199219 339.453125 353.6875 339.171875 353.414062 338.671875 L 352.929688 337.789062 C 350.328125 333.03125 347.636719 328.109375 347.765625 322.523438 C 347.851562 319.050781 349.0625 315.722656 350.128906 312.785156 C 350.742188 311.082031 351.371094 309.359375 352.003906 307.648438 L 353.234375 304.269531 C 353.515625 303.488281 354.378906 303.09375 355.15625 303.371094 C 355.933594 303.65625 356.335938 304.519531 356.050781 305.296875 L 354.820312 308.679688 C 354.191406 310.390625 353.5625 312.105469 352.949219 313.808594 C 351.910156 316.664062 350.839844 319.613281 350.765625 322.597656 C 350.65625 327.378906 353.152344 331.9375 355.5625 336.347656 L 356.046875 337.234375 C 356.445312 337.964844 356.175781 338.875 355.449219 339.269531 C 355.21875 339.394531 354.972656 339.453125 354.730469 339.453125" style="fill: rgb(255, 255, 255);"></path></g><g id="__id328_slrzjbdfhh"><path d="M 47.558594 106.898438 C 47.253906 106.898438 46.949219 106.808594 46.6875 106.617188 C 46.011719 106.136719 45.855469 105.199219 46.339844 104.523438 C 46.839844 103.824219 47.34375 103.128906 47.851562 102.433594 C 48.339844 101.765625 49.277344 101.617188 49.945312 102.109375 C 50.617188 102.597656 50.761719 103.535156 50.273438 104.203125 C 49.769531 104.890625 49.273438 105.578125 48.777344 106.269531 C 48.484375 106.679688 48.023438 106.898438 47.558594 106.898438 Z M 36.320312 124.0625 C 36.058594 124.0625 35.792969 123.992188 35.554688 123.847656 C 34.839844 123.421875 34.609375 122.503906 35.035156 121.789062 C 35.476562 121.054688 35.921875 120.316406 36.367188 119.585938 C 36.800781 118.878906 37.722656 118.65625 38.429688 119.085938 C 39.136719 119.519531 39.359375 120.441406 38.929688 121.148438 C 38.484375 121.875 38.046875 122.601562 37.609375 123.328125 C 37.328125 123.800781 36.832031 124.0625 36.320312 124.0625 Z M 26.542969 142.09375 C 26.320312 142.09375 26.09375 142.042969 25.882812 141.941406 C 25.140625 141.574219 24.832031 140.675781 25.195312 139.933594 C 25.574219 139.160156 25.957031 138.390625 26.34375 137.621094 C 26.714844 136.882812 27.617188 136.585938 28.355469 136.957031 C 29.097656 137.328125 29.394531 138.230469 29.023438 138.972656 C 28.640625 139.730469 28.261719 140.488281 27.890625 141.253906 C 27.628906 141.785156 27.097656 142.09375 26.542969 142.09375 Z M 18.292969 160.871094 C 18.113281 160.871094 17.925781 160.839844 17.75 160.769531 C 16.976562 160.46875 16.59375 159.597656 16.894531 158.824219 C 17.207031 158.027344 17.527344 157.226562 17.847656 156.429688 C 18.15625 155.660156 19.03125 155.289062 19.796875 155.597656 C 20.566406 155.90625 20.9375 156.78125 20.628906 157.550781 C 20.3125 158.335938 20 159.125 19.691406 159.917969 C 19.460938 160.511719 18.894531 160.871094 18.292969 160.871094 Z M 11.636719 180.269531 C 11.492188 180.269531 11.347656 180.25 11.207031 180.207031 C 10.414062 179.972656 9.960938 179.136719 10.199219 178.34375 C 10.441406 177.519531 10.691406 176.695312 10.945312 175.878906 C 11.1875 175.085938 12.03125 174.640625 12.820312 174.886719 C 13.613281 175.132812 14.054688 175.972656 13.8125 176.761719 C 13.5625 177.570312 13.316406 178.382812 13.074219 179.199219 C 12.878906 179.851562 12.28125 180.269531 11.636719 180.269531 Z M 6.617188 200.152344 C 6.515625 200.152344 6.410156 200.144531 6.308594 200.121094 C 5.496094 199.953125 4.976562 199.15625 5.148438 198.347656 C 5.320312 197.503906 5.5 196.664062 5.683594 195.828125 C 5.863281 195.019531 6.660156 194.507812 7.472656 194.683594 C 8.28125 194.863281 8.792969 195.660156 8.617188 196.472656 C 8.433594 197.300781 8.257812 198.128906 8.082031 198.960938 C 7.9375 199.664062 7.3125 200.152344 6.617188 200.152344 Z M 3.265625 220.378906 C 3.203125 220.378906 3.140625 220.378906 3.078125 220.367188 C 2.257812 220.269531 1.671875 219.519531 1.773438 218.695312 C 1.878906 217.84375 1.988281 216.992188 2.101562 216.144531 C 2.214844 215.324219 2.964844 214.75 3.789062 214.855469 C 4.609375 214.96875 5.1875 215.722656 5.078125 216.542969 C 4.964844 217.382812 4.855469 218.222656 4.75 219.0625 C 4.65625 219.824219 4.011719 220.378906 3.265625 220.378906 Z M 1.59375 240.8125 C 1.570312 240.8125 1.550781 240.8125 1.53125 240.8125 C 0.703125 240.777344 0.0585938 240.078125 0.09375 239.253906 C 0.128906 238.394531 0.167969 237.539062 0.210938 236.683594 C 0.253906 235.855469 0.953125 235.214844 1.785156 235.261719 C 2.613281 235.304688 3.25 236.007812 3.207031 236.835938 C 3.164062 237.679688 3.125 238.527344 3.089844 239.375 C 3.058594 240.179688 2.394531 240.8125 1.59375 240.8125 Z M 1.589844 261.347656 C 0.789062 261.347656 0.125 260.714844 0.09375 259.90625 C 0.0585938 259.046875 0.0273438 258.183594 0 257.320312 C -0.0234375 256.492188 0.625 255.800781 1.453125 255.773438 C 2.277344 255.722656 2.972656 256.398438 3 257.226562 C 3.027344 258.082031 3.054688 258.933594 3.089844 259.785156 C 3.125 260.613281 2.480469 261.3125 1.652344 261.34375 C 1.632812 261.347656 1.613281 261.347656 1.589844 261.347656 Z M 3.265625 281.804688 C 2.519531 281.804688 1.871094 281.25 1.777344 280.488281 C 1.671875 279.636719 1.570312 278.777344 1.472656 277.921875 C 1.382812 277.097656 1.972656 276.355469 2.796875 276.261719 C 3.609375 276.160156 4.363281 276.761719 4.457031 277.585938 C 4.550781 278.429688 4.652344 279.277344 4.753906 280.121094 C 4.859375 280.941406 4.273438 281.691406 3.453125 281.792969 C 3.390625 281.800781 3.328125 281.804688 3.265625 281.804688 Z M 6.621094 302.054688 C 5.925781 302.054688 5.300781 301.566406 5.15625 300.859375 C 4.980469 300.019531 4.808594 299.171875 4.640625 298.324219 C 4.480469 297.515625 5.007812 296.726562 5.820312 296.5625 C 6.632812 296.402344 7.421875 296.929688 7.582031 297.742188 C 7.746094 298.578125 7.917969 299.414062 8.089844 300.246094 C 8.261719 301.058594 7.742188 301.851562 6.929688 302.023438 C 6.828125 302.042969 6.722656 302.054688 6.621094 302.054688 Z M 11.648438 321.953125 C 11.003906 321.953125 10.40625 321.53125 10.210938 320.882812 C 9.964844 320.054688 9.726562 319.226562 9.488281 318.398438 C 9.261719 317.601562 9.722656 316.769531 10.515625 316.542969 C 11.308594 316.316406 12.144531 316.773438 12.371094 317.570312 C 12.605469 318.390625 12.84375 319.207031 13.085938 320.023438 C 13.324219 320.816406 12.871094 321.652344 12.078125 321.890625 C 11.9375 321.933594 11.789062 321.953125 11.648438 321.953125 Z M 18.316406 341.359375 C 17.714844 341.359375 17.148438 341 16.917969 340.40625 C 16.605469 339.605469 16.296875 338.800781 15.992188 337.996094 C 15.699219 337.222656 16.085938 336.355469 16.863281 336.0625 C 17.636719 335.769531 18.503906 336.160156 18.796875 336.933594 C 19.097656 337.726562 19.402344 338.523438 19.714844 339.316406 C 20.015625 340.089844 19.632812 340.957031 18.863281 341.257812 C 18.683594 341.328125 18.496094 341.359375 18.316406 341.359375 Z M 26.574219 360.144531 C 26.023438 360.144531 25.488281 359.835938 25.226562 359.304688 C 24.847656 358.53125 24.472656 357.757812 24.101562 356.980469 C 23.746094 356.230469 24.0625 355.335938 24.8125 354.980469 C 25.558594 354.625 26.453125 354.9375 26.808594 355.6875 C 27.175781 356.453125 27.546875 357.222656 27.921875 357.984375 C 28.285156 358.726562 27.980469 359.628906 27.234375 359.992188 C 27.023438 360.097656 26.796875 360.144531 26.574219 360.144531 Z M 36.367188 378.179688 C 35.855469 378.179688 35.355469 377.921875 35.078125 377.449219 C 34.636719 376.710938 34.199219 375.96875 33.761719 375.226562 C 33.347656 374.511719 33.585938 373.59375 34.300781 373.175781 C 35.015625 372.753906 35.9375 372.996094 36.355469 373.714844 C 36.785156 374.449219 37.214844 375.179688 37.652344 375.910156 C 38.078125 376.621094 37.84375 377.542969 37.132812 377.96875 C 36.890625 378.113281 36.628906 378.179688 36.367188 378.179688 Z M 47.074219 394.585938 C 46.605469 394.585938 46.140625 394.363281 45.847656 393.953125 L 44.902344 392.605469 C 44.425781 391.929688 44.589844 390.992188 45.269531 390.515625 C 45.945312 390.039062 46.882812 390.207031 47.359375 390.882812 L 48.296875 392.214844 C 48.777344 392.890625 48.617188 393.828125 47.941406 394.308594 C 47.679688 394.492188 47.375 394.585938 47.074219 394.585938" style="fill: rgb(255, 255, 255);"></path></g><g clip-path="url(#__id323_slrzjbdfhh)" id="__id329_slrzjbdfhh"><path d="M 249.460938 499.148438 C 210.351562 499.148438 172.90625 490.359375 138.160156 473.019531 C 105.03125 456.484375 75.445312 432.273438 52.597656 402.996094 C 52.089844 402.34375 52.207031 401.402344 52.859375 400.894531 C 53.511719 400.382812 54.453125 400.5 54.964844 401.152344 C 77.535156 430.078125 106.769531 454 139.5 470.335938 C 173.824219 487.464844 210.820312 496.148438 249.460938 496.148438 C 315.324219 496.148438 377.246094 470.503906 423.820312 423.929688 C 470.386719 377.355469 496.035156 315.4375 496.035156 249.574219 C 496.035156 183.707031 470.386719 121.785156 423.820312 75.214844 C 377.25 28.644531 315.328125 2.996094 249.460938 2.996094 C 174.1875 2.996094 104.003906 36.726562 56.902344 95.535156 C 56.382812 96.183594 55.441406 96.285156 54.792969 95.769531 C 54.148438 95.25 54.042969 94.304688 54.5625 93.660156 C 102.234375 34.136719 173.269531 -0.00390625 249.460938 -0.00390625 C 316.128906 -0.00390625 378.804688 25.957031 425.941406 73.09375 C 473.074219 120.230469 499.035156 182.90625 499.035156 249.574219 C 499.035156 316.238281 473.074219 378.910156 425.941406 426.050781 C 378.800781 473.1875 316.128906 499.148438 249.460938 499.148438" style="fill: rgb(255, 255, 255);"></path></g><g id="__id330_slrzjbdfhh"><path d="M 178.949219 447.816406 C 133.234375 447.816406 88.625 431.886719 53.34375 402.964844 C 52.703125 402.441406 52.609375 401.496094 53.136719 400.855469 C 53.660156 400.214844 54.605469 400.121094 55.246094 400.644531 C 89.992188 429.128906 133.925781 444.816406 178.949219 444.816406 C 215.804688 444.816406 251.695312 434.496094 282.734375 414.96875 C 312.933594 395.96875 337.367188 369.105469 353.390625 337.277344 C 353.765625 336.539062 354.664062 336.238281 355.40625 336.613281 C 356.144531 336.984375 356.441406 337.886719 356.070312 338.628906 C 339.800781 370.941406 314.992188 398.21875 284.328125 417.507812 C 252.8125 437.335938 216.371094 447.816406 178.949219 447.816406" style="fill: rgb(255, 255, 255);"></path></g><g id="__id331_slrzjbdfhh"><path d="M 341.917969 140.824219 C 341.4375 140.824219 340.964844 140.59375 340.675781 140.167969 C 304.242188 86.421875 243.785156 54.332031 178.949219 54.332031 C 134.394531 54.332031 92.4375 68.949219 57.613281 96.605469 C 56.964844 97.121094 56.023438 97.011719 55.507812 96.363281 C 54.992188 95.714844 55.097656 94.769531 55.75 94.257812 C 91.109375 66.175781 133.710938 51.332031 178.949219 51.332031 C 244.78125 51.332031 306.167969 83.910156 343.15625 138.484375 C 343.621094 139.167969 343.445312 140.101562 342.757812 140.566406 C 342.5 140.742188 342.207031 140.824219 341.917969 140.824219" style="fill: rgb(255, 255, 255);"></path></g><g id="__id332_slrzjbdfhh"><path d="M 355.917969 307.226562 C 374.046875 309.632812 392.941406 311.917969 410.609375 305.78125 C 412.421875 305.152344 411.640625 302.253906 409.808594 302.890625 C 392.398438 308.933594 373.777344 306.597656 355.917969 304.226562 C 354.007812 303.972656 354.027344 306.976562 355.917969 307.226562" style="fill: rgb(255, 255, 255);"></path></g><g id="__id333_slrzjbdfhh"><path d="M 383.65625 198.820312 C 383.023438 203.058594 383.90625 207.527344 386.105469 211.164062 C 386.566406 211.929688 387.164062 212.34375 387.359375 212.351562 C 387.4375 212.25 387.601562 211.726562 387.660156 211.527344 C 389.316406 205.984375 390.367188 200.230469 390.796875 194.402344 C 388.546875 195.34375 386.222656 196.78125 383.65625 198.820312 Z M 387.363281 215.351562 C 387.121094 215.351562 386.878906 215.320312 386.628906 215.261719 C 384.929688 214.851562 383.832031 213.203125 383.535156 212.710938 C 380.871094 208.308594 379.871094 202.851562 380.796875 197.742188 C 380.859375 197.390625 381.046875 197.070312 381.324219 196.84375 C 385.183594 193.714844 388.578125 191.792969 392.011719 190.796875 C 392.480469 190.660156 392.976562 190.761719 393.359375 191.058594 C 393.738281 191.359375 393.949219 191.824219 393.929688 192.304688 C 393.613281 199.140625 392.472656 205.902344 390.53125 212.394531 C 390.316406 213.097656 389.964844 214.253906 388.890625 214.910156 C 388.425781 215.203125 387.90625 215.351562 387.363281 215.351562" style="fill: rgb(255, 255, 255);"></path></g><g id="__id334_slrzjbdfhh"><path d="M 430.015625 206.820312 C 427.773438 206.820312 425.507812 206.382812 423.121094 205.480469 C 422.347656 205.1875 421.953125 204.320312 422.246094 203.546875 C 422.539062 202.773438 423.402344 202.378906 424.179688 202.671875 C 426.4375 203.523438 428.527344 203.890625 430.605469 203.808594 C 431.425781 203.785156 432.132812 204.417969 432.164062 205.246094 C 432.199219 206.074219 431.558594 206.773438 430.730469 206.808594 C 430.492188 206.816406 430.253906 206.820312 430.015625 206.820312" style="fill: rgb(255, 255, 255);"></path></g><g id="__id335_slrzjbdfhh"><path d="M 423.652344 205.578125 C 423.472656 205.578125 423.292969 205.546875 423.117188 205.480469 C 419.53125 204.117188 416.160156 201.882812 412.898438 199.726562 C 407.796875 196.34375 402.976562 193.152344 397.46875 193.042969 C 395.949219 193.019531 394.40625 193.222656 392.851562 193.675781 C 392.054688 193.90625 391.222656 193.453125 390.988281 192.65625 C 390.757812 191.859375 391.214844 191.027344 392.011719 190.796875 C 393.863281 190.257812 395.71875 190.003906 397.53125 190.046875 C 403.90625 190.171875 409.320312 193.757812 414.554688 197.222656 C 417.824219 199.386719 420.90625 201.429688 424.183594 202.675781 C 424.957031 202.96875 425.347656 203.835938 425.054688 204.609375 C 424.824219 205.207031 424.253906 205.578125 423.652344 205.578125" style="fill: rgb(255, 255, 255);"></path></g><g id="__id336_slrzjbdfhh"><path d="M 382.269531 199.507812 C 381.441406 199.507812 380.769531 198.839844 380.769531 198.007812 C 380.769531 197.921875 380.78125 197.816406 380.800781 197.71875 C 380.902344 196.992188 381.527344 196.433594 382.28125 196.433594 C 383.113281 196.433594 383.78125 197.101562 383.78125 197.933594 C 383.78125 198.019531 383.773438 198.128906 383.753906 198.222656 C 383.652344 198.949219 383.027344 199.507812 382.269531 199.507812" style="fill: rgb(255, 255, 255);"></path></g><g id="__id337_slrzjbdfhh"><path d="M 376.949219 204.253906 C 376.550781 204.253906 376.152344 204.097656 375.859375 203.785156 C 375.289062 203.183594 375.316406 202.234375 375.914062 201.664062 C 377.992188 199.699219 379.710938 198.167969 381.320312 196.847656 C 381.960938 196.324219 382.90625 196.417969 383.429688 197.058594 C 383.957031 197.699219 383.863281 198.644531 383.222656 199.167969 C 381.671875 200.441406 380.003906 201.925781 377.980469 203.84375 C 377.6875 204.117188 377.316406 204.253906 376.949219 204.253906" style="fill: rgb(255, 255, 255);"></path></g><g id="__id338_slrzjbdfhh"><path d="M 365.460938 176.070312 C 387.171875 161.570312 416.214844 163.339844 435.863281 180.601562 C 437.308594 181.871094 439.4375 179.757812 437.984375 178.480469 C 417.363281 160.363281 386.816406 158.203125 363.945312 173.480469 C 362.347656 174.546875 363.847656 177.148438 365.460938 176.070312" style="fill: rgb(255, 255, 255);"></path></g><g id="__id339_slrzjbdfhh"><path d="M 376.730469 193.625 C 385.300781 187.699219 395.5625 185.117188 405.917969 186.257812 C 407.835938 186.46875 407.820312 183.464844 405.917969 183.257812 C 395.101562 182.066406 384.164062 184.847656 375.214844 191.035156 C 373.640625 192.125 375.136719 194.726562 376.730469 193.625" style="fill: rgb(255, 255, 255);"></path></g><g id="__id340_slrzjbdfhh"><path d="M 372.820312 227.542969 C 372.394531 228.398438 371.96875 229.257812 371.542969 230.113281 C 371.179688 230.835938 371.347656 231.734375 372.078125 232.164062 C 372.742188 232.554688 373.769531 232.355469 374.132812 231.625 C 374.558594 230.769531 374.984375 229.914062 375.410156 229.058594 C 375.769531 228.332031 375.605469 227.433594 374.871094 227.007812 C 374.207031 226.617188 373.179688 226.816406 372.820312 227.542969" style="fill: rgb(255, 255, 255);"></path></g><g id="__id341_slrzjbdfhh"><path d="M 387.324219 228.28125 C 387.324219 229.351562 387.324219 230.417969 387.324219 231.488281 C 387.324219 233.417969 390.324219 233.421875 390.324219 231.488281 C 390.324219 230.417969 390.324219 229.351562 390.324219 228.28125 C 390.324219 226.351562 387.324219 226.347656 387.324219 228.28125" style="fill: rgb(255, 255, 255);"></path></g><g id="__id342_slrzjbdfhh"><path d="M 402.679688 226.359375 C 402.792969 227.972656 403.386719 229.394531 404.464844 230.601562 C 405.003906 231.207031 406.035156 231.152344 406.585938 230.601562 C 407.1875 230 407.128906 229.085938 406.585938 228.480469 C 406.0625 227.894531 405.734375 227.144531 405.679688 226.359375 C 405.621094 225.550781 405.03125 224.859375 404.179688 224.859375 C 403.410156 224.859375 402.621094 225.546875 402.679688 226.359375" style="fill: rgb(255, 255, 255);"></path></g><g id="__id343_slrzjbdfhh"><path d="M 414.363281 221.238281 C 415.003906 221.664062 415.648438 222.09375 416.289062 222.519531 C 416.960938 222.972656 417.949219 222.652344 418.339844 221.984375 C 418.769531 221.246094 418.476562 220.382812 417.800781 219.929688 C 417.160156 219.503906 416.519531 219.074219 415.878906 218.648438 C 415.203125 218.199219 414.21875 218.515625 413.824219 219.1875 C 413.394531 219.921875 413.6875 220.789062 414.363281 221.238281" style="fill: rgb(255, 255, 255);"></path></g><g id="__id344_slrzjbdfhh"><path d="M 375.601562 220.742188 C 386.933594 225.203125 400.1875 223.402344 409.90625 216.0625 C 411.429688 214.914062 409.933594 212.308594 408.390625 213.472656 C 399.226562 220.394531 387.085938 222.058594 376.398438 217.851562 C 374.601562 217.144531 373.824219 220.042969 375.601562 220.742188" style="fill: rgb(255, 255, 255);"></path></g><g id="__id345_slrzjbdfhh"><path d="M 403.183594 297.144531 C 406.988281 302.171875 411.796875 306.128906 417.542969 308.742188 C 419.285156 309.535156 420.8125 306.949219 419.058594 306.152344 C 413.808594 303.765625 409.261719 300.238281 405.773438 295.632812 C 404.621094 294.113281 402.015625 295.605469 403.183594 297.144531" style="fill: rgb(255, 255, 255);"></path></g><g id="__id346_slrzjbdfhh"><path d="M 361.203125 277.746094 C 362.632812 275.753906 366.308594 270.480469 369.167969 271.570312 C 370.351562 272.023438 371.597656 273.328125 372.617188 274.074219 C 374.074219 275.140625 375.53125 276.203125 376.988281 277.269531 C 378.550781 278.40625 380.050781 275.804688 378.503906 274.675781 C 376.441406 273.171875 374.375 271.664062 372.3125 270.15625 C 370.929688 269.144531 369.550781 267.984375 367.734375 268.179688 C 365.933594 268.375 364.359375 269.929688 363.085938 271.09375 C 361.394531 272.636719 359.941406 274.378906 358.613281 276.234375 C 357.488281 277.808594 360.089844 279.308594 361.203125 277.746094" style="fill: rgb(255, 255, 255);"></path></g></g></svg>